<svg width="24" height="24" viewBox="0 0 24 24" fill="none" xmlns="http://www.w3.org/2000/svg">
    <rect width="24" height="24" rx="6" fill="url(#paint0_linear_1_289)"/>
    <path d="M11.9978 16.192C11.1338 16.192 10.3898 16.012 9.7658 15.652C9.1498 15.292 8.6738 14.78 8.3378 14.116C8.0098 13.452 7.8458 12.664 7.8458 11.752C7.8458 10.84 8.0098 10.052 8.3378 9.388C8.6738 8.716 9.1498 8.2 9.7658 7.84C10.3898 7.472 11.1338 7.288 11.9978 7.288C12.8618 7.288 13.6018 7.472 14.2178 7.84C14.8418 8.2 15.3178 8.716 15.6458 9.388C15.9818 10.052 16.1498 10.84 16.1498 11.752C16.1498 12.664 15.9818 13.452 15.6458 14.116C15.3178 14.78 14.8418 15.292 14.2178 15.652C13.6018 16.012 12.8618 16.192 11.9978 16.192ZM11.9858 14.656C12.4658 14.656 12.8738 14.544 13.2098 14.32C13.5538 14.088 13.8138 13.756 13.9898 13.324C14.1738 12.892 14.2658 12.368 14.2658 11.752C14.2658 11.136 14.1738 10.612 13.9898 10.18C13.8138 9.74 13.5538 9.404 13.2098 9.172C12.8738 8.94 12.4658 8.824 11.9858 8.824C11.5138 8.824 11.1098 8.94 10.7738 9.172C10.4378 9.404 10.1778 9.74 9.9938 10.18C9.8178 10.612 9.7298 11.136 9.7298 11.752C9.7298 12.368 9.8178 12.892 9.9938 13.324C10.1778 13.756 10.4378 14.088 10.7738 14.32C11.1178 14.544 11.5218 14.656 11.9858 14.656Z" fill="white"/>
    <defs>
        <linearGradient id="paint0_linear_1_289" x1="0" y1="0" x2="24" y2="24" gradientUnits="userSpaceOnUse">
            <stop stop-color="#60A5FA"/>
            <stop offset="1" stop-color="#2563EB"/>
        </linearGradient>
    </defs>
</svg>
