<svg width="16" height="17" viewBox="0 0 16 17" fill="none" xmlns="http://www.w3.org/2000/svg">
    <path d="M2 8.40003C2 9.58671 2.35189 10.7468 3.01118 11.7334C3.67047 12.7201 4.60754 13.4892 5.7039 13.9433C6.80026 14.3974 8.00666 14.5162 9.17054 14.2847C10.3344 14.0532 11.4035 13.4818 12.2426 12.6427C13.0818 11.8036 13.6532 10.7345 13.8847 9.57057C14.1162 8.40668 13.9974 7.20028 13.5433 6.10392C13.0892 5.00757 12.3201 4.0705 11.3334 3.41121C10.3467 2.75192 9.18669 2.40002 8 2.40002C6.32264 2.40633 4.71265 3.06084 3.50667 4.22669L2 5.73336" stroke="white" stroke-width="1.33333" stroke-linecap="round" stroke-linejoin="round"/>
    <path d="M2 2.40002V5.73336H5.33333" stroke="white" stroke-width="1.33333" stroke-linecap="round" stroke-linejoin="round"/>
</svg>
